%TF.GenerationSoftware,KiCad,Pcbnew,10.0.6*%
%TF.CreationDate,2026-09-20T19:14:13-04:00*%
%TF.ProjectId,stm32-environmental-control-system,73746d33-322d-4656-9e76-69726f6e6d65,rev?*%
%TF.SameCoordinates,Original*%
%TF.FileFunction,Copper,L2,Bot*%
%TF.FilePolarity,Positive*%
%FSLAX46Y46*%
G04 Gerber Fmt 4.6, Leading zero omitted, Abs format (unit mm)*
G04 Created by KiCad (PCBNEW 10.0.6) date 2026-09-20 19:14:13*
%MOMM*%
%LPD*%
G01*
G04 APERTURE LIST*
%TA.AperFunction,ComponentPad*%
%ADD10C,1.700000*%
%TD*%
%TA.AperFunction,ComponentPad*%
%ADD11R,1.700000X1.700000*%
%TD*%
%TA.AperFunction,ComponentPad*%
%ADD12O,1.730000X2.030000*%
%TD*%
%TA.AperFunction,ComponentPad*%
%ADD13R,1.730000X2.030000*%
%TD*%
G04 APERTURE END LIST*
D10*
%TO.P,J1,8,Pin_8_8*%
%TO.N,/VIN*%
X100000000Y-117780000D03*
%TO.P,J1,7,Pin_7_7*%
%TO.N,/GND*%
X100000000Y-115240000D03*
%TO.P,J1,6,Pin_6_6*%
X100000000Y-112700000D03*
%TO.P,J1,5,Pin_5_5*%
%TO.N,/NUCLEO_5V*%
X100000000Y-110160000D03*
%TO.P,J1,4,Pin_4_4*%
%TO.N,/3V3*%
X100000000Y-107620000D03*
%TO.P,J1,3,Pin_3_3*%
%TO.N,/RESET*%
X100000000Y-105080000D03*
%TO.P,J1,2,Pin_2_2*%
%TO.N,/IOREF*%
X100000000Y-102540000D03*
D11*
%TO.P,J1,1,Pin_1_1*%
%TO.N,/NC*%
X100000000Y-100000000D03*
%TD*%
D10*
%TO.P,J3,6,Pin_6_6*%
%TO.N,unconnected-(J3-Pin_6-Pad6)*%
X100000000Y-135560000D03*
%TO.P,J3,5,Pin_5_5*%
%TO.N,unconnected-(J3-Pin_5-Pad5)*%
X100000000Y-133020000D03*
%TO.P,J3,4,Pin_4_4*%
%TO.N,unconnected-(J3-Pin_4-Pad4)*%
X100000000Y-130480000D03*
%TO.P,J3,3,Pin_3_3*%
%TO.N,/A2_PA4*%
X100000000Y-127940000D03*
%TO.P,J3,2,Pin_2_2*%
%TO.N,/A1_PA1*%
X100000000Y-125400000D03*
D11*
%TO.P,J3,1,Pin_1_1*%
%TO.N,/A0_PA0*%
X100000000Y-122860000D03*
%TD*%
%TO.P,J2,1,Pin_1_1*%
%TO.N,unconnected-(J2-Pin_1-Pad1)*%
X148260000Y-113720000D03*
D10*
%TO.P,J2,2,Pin_2_2*%
%TO.N,unconnected-(J2-Pin_2-Pad2)*%
X148260000Y-111180000D03*
%TO.P,J2,3,Pin_3_3*%
%TO.N,unconnected-(J2-Pin_3-Pad3)*%
X148260000Y-108640000D03*
%TO.P,J2,4,Pin_4_4*%
%TO.N,unconnected-(J2-Pin_4-Pad4)*%
X148260000Y-106100000D03*
%TO.P,J2,5,Pin_5_5*%
%TO.N,unconnected-(J2-Pin_5-Pad5)*%
X148260000Y-103560000D03*
%TO.P,J2,6,Pin_6_6*%
%TO.N,unconnected-(J2-Pin_6-Pad6)*%
X148260000Y-101020000D03*
%TO.P,J2,7,Pin_7_7*%
%TO.N,unconnected-(J2-Pin_7-Pad7)*%
X148260000Y-98480000D03*
%TO.P,J2,8,Pin_8_8*%
%TO.N,unconnected-(J2-Pin_8-Pad8)*%
X148260000Y-95940000D03*
%TO.P,J2,9,Pin_9_9*%
%TO.N,/D14_PB9_SDA*%
X148260000Y-93400000D03*
%TO.P,J2,10,Pin_10_10*%
%TO.N,/D15_PB8_SCL*%
X148260000Y-90860000D03*
%TD*%
D11*
%TO.P,J4,1,Pin_1_1*%
%TO.N,/D0_PA3_RX*%
X148260000Y-135560000D03*
D10*
%TO.P,J4,2,Pin_2_2*%
%TO.N,/D1_PA2_TX*%
X148260000Y-133020000D03*
%TO.P,J4,3,Pin_3_3*%
%TO.N,/D2_PA10*%
X148260000Y-130480000D03*
%TO.P,J4,4,Pin_4_4*%
%TO.N,/d3_PB3*%
X148260000Y-127940000D03*
%TO.P,J4,5,Pin_5_5*%
%TO.N,/D4_PB5*%
X148260000Y-125400000D03*
%TO.P,J4,6,Pin_6_6*%
%TO.N,/D5_PB4*%
X148260000Y-122860000D03*
%TO.P,J4,7,Pin_7_7*%
%TO.N,/D6_PB10*%
X148260000Y-120320000D03*
%TO.P,J4,8,Pin_8_8*%
%TO.N,/D7_PA8*%
X148260000Y-117780000D03*
%TD*%
D12*
%TO.P,J6,4,Pin_4_4*%
%TO.N,/D14_PB9_SDA*%
X152320000Y-78650000D03*
%TO.P,J6,3,Pin_3_3*%
%TO.N,/D15_PB8_SCL*%
X149780000Y-78650000D03*
%TO.P,J6,2,Pin_2_2*%
%TO.N,/3V3*%
X147240000Y-78650000D03*
D13*
%TO.P,J6,1,Pin_1_1*%
%TO.N,/GND*%
X144700000Y-78650000D03*
%TD*%
D12*
%TO.P,J5,3,Pin_3_3*%
%TO.N,/GND*%
X95530000Y-87925000D03*
%TO.P,J5,2,Pin_2_2*%
%TO.N,/A1_PA1*%
X92990000Y-87925000D03*
D13*
%TO.P,J5,1,Pin_1_1*%
%TO.N,/3V3*%
X90450000Y-87925000D03*
%TD*%
D10*
%TO.P,RV1,3,3_3*%
%TO.N,/GND*%
X89775000Y-147125000D03*
%TO.P,RV1,2,2_2*%
%TO.N,/A0_PA0*%
X89775000Y-144585000D03*
D11*
%TO.P,RV1,1,1_1*%
%TO.N,/3V3*%
X89775000Y-142045000D03*
%TD*%
%TO.P,J10,1,Pin_1_1*%
%TO.N,/FAN_5V*%
X159750000Y-158050000D03*
D10*
%TO.P,J10,2,Pin_2_2*%
%TO.N,/GND*%
X159750000Y-160590000D03*
%TD*%
D13*
%TO.P,J9,1,Pin_1_1*%
%TO.N,/FAN_5V*%
X151620000Y-146400000D03*
D12*
%TO.P,J9,2,Pin_2_2*%
%TO.N,/GND*%
X154160000Y-146400000D03*
%TO.P,J9,3,Pin_3_3*%
%TO.N,/FAN_5V*%
X156700000Y-146400000D03*
%TO.P,J9,4,Pin_4_4*%
%TO.N,/FAN_SW*%
X159240000Y-146400000D03*
%TD*%
D11*
%TO.P,J8,1,Pin_1_1*%
%TO.N,/FAN_5V*%
X147850000Y-158800000D03*
D10*
%TO.P,J8,2,Pin_2_2*%
%TO.N,/FAN_SW*%
X147850000Y-161340000D03*
%TD*%
D11*
%TO.P,J7,1,Pin_1_1*%
%TO.N,/A2_PA4*%
X133000000Y-145525000D03*
D10*
%TO.P,J7,2,Pin_2_2*%
%TO.N,/GND*%
X133000000Y-148065000D03*
%TD*%
M02*
