M48
; DRILL file KiCad 10.0.6 date 2026-09-20T19:14:18
; FORMAT={-:-/ absolute / metric / decimal}
; #@! TF.CreationDate,2026-09-20T19:14:18-04:00
; #@! TF.GenerationSoftware,Kicad,Pcbnew,10.0.6
; #@! TF.FileFunction,Plated,1,2,PTH
FMAT,2
METRIC
; #@! TA.AperFunction,Plated,PTH,ComponentDrill
T1C1.000
; #@! TA.AperFunction,Plated,PTH,ComponentDrill
T2C1.020
%
G90
G05
T1
X89.775Y-142.045
X89.775Y-144.585
X89.775Y-147.125
X100.0Y-100.0
X100.0Y-102.54
X100.0Y-105.08
X100.0Y-107.62
X100.0Y-110.16
X100.0Y-112.7
X100.0Y-115.24
X100.0Y-117.78
X100.0Y-122.86
X100.0Y-125.4
X100.0Y-127.94
X100.0Y-130.48
X100.0Y-133.02
X100.0Y-135.56
X133.0Y-145.525
X133.0Y-148.065
X147.85Y-158.8
X147.85Y-161.34
X148.26Y-90.86
X148.26Y-93.4
X148.26Y-95.94
X148.26Y-98.48
X148.26Y-101.02
X148.26Y-103.56
X148.26Y-106.1
X148.26Y-108.64
X148.26Y-111.18
X148.26Y-113.72
X148.26Y-117.78
X148.26Y-120.32
X148.26Y-122.86
X148.26Y-125.4
X148.26Y-127.94
X148.26Y-130.48
X148.26Y-133.02
X148.26Y-135.56
X159.75Y-158.05
X159.75Y-160.59
T2
X90.45Y-87.925
X92.99Y-87.925
X95.53Y-87.925
X144.7Y-78.65
X147.24Y-78.65
X149.78Y-78.65
X151.62Y-146.4
X152.32Y-78.65
X154.16Y-146.4
X156.7Y-146.4
X159.24Y-146.4
M30
