%TF.GenerationSoftware,KiCad,Pcbnew,10.0.6*%
%TF.CreationDate,2026-09-20T19:14:13-04:00*%
%TF.ProjectId,stm32-environmental-control-system,73746d33-322d-4656-9e76-69726f6e6d65,rev?*%
%TF.SameCoordinates,Original*%
%TF.FileFunction,Legend,Top*%
%TF.FilePolarity,Positive*%
%FSLAX46Y46*%
G04 Gerber Fmt 4.6, Leading zero omitted, Abs format (unit mm)*
G04 Created by KiCad (PCBNEW 10.0.6) date 2026-09-20 19:14:13*
%MOMM*%
%LPD*%
G01*
G04 APERTURE LIST*
%ADD10C,0.150000*%
%ADD11C,0.120000*%
G04 APERTURE END LIST*
D10*
X99666666Y-97074819D02*
X99666666Y-97789104D01*
X99666666Y-97789104D02*
X99619047Y-97931961D01*
X99619047Y-97931961D02*
X99523809Y-98027200D01*
X99523809Y-98027200D02*
X99380952Y-98074819D01*
X99380952Y-98074819D02*
X99285714Y-98074819D01*
X100666666Y-98074819D02*
X100095238Y-98074819D01*
X100380952Y-98074819D02*
X100380952Y-97074819D01*
X100380952Y-97074819D02*
X100285714Y-97217676D01*
X100285714Y-97217676D02*
X100190476Y-97312914D01*
X100190476Y-97312914D02*
X100095238Y-97360533D01*
X99666666Y-119934819D02*
X99666666Y-120649104D01*
X99666666Y-120649104D02*
X99619047Y-120791961D01*
X99619047Y-120791961D02*
X99523809Y-120887200D01*
X99523809Y-120887200D02*
X99380952Y-120934819D01*
X99380952Y-120934819D02*
X99285714Y-120934819D01*
X100047619Y-119934819D02*
X100666666Y-119934819D01*
X100666666Y-119934819D02*
X100333333Y-120315771D01*
X100333333Y-120315771D02*
X100476190Y-120315771D01*
X100476190Y-120315771D02*
X100571428Y-120363390D01*
X100571428Y-120363390D02*
X100619047Y-120411009D01*
X100619047Y-120411009D02*
X100666666Y-120506247D01*
X100666666Y-120506247D02*
X100666666Y-120744342D01*
X100666666Y-120744342D02*
X100619047Y-120839580D01*
X100619047Y-120839580D02*
X100571428Y-120887200D01*
X100571428Y-120887200D02*
X100476190Y-120934819D01*
X100476190Y-120934819D02*
X100190476Y-120934819D01*
X100190476Y-120934819D02*
X100095238Y-120887200D01*
X100095238Y-120887200D02*
X100047619Y-120839580D01*
X147926666Y-115554819D02*
X147926666Y-116269104D01*
X147926666Y-116269104D02*
X147879047Y-116411961D01*
X147879047Y-116411961D02*
X147783809Y-116507200D01*
X147783809Y-116507200D02*
X147640952Y-116554819D01*
X147640952Y-116554819D02*
X147545714Y-116554819D01*
X148355238Y-115650057D02*
X148402857Y-115602438D01*
X148402857Y-115602438D02*
X148498095Y-115554819D01*
X148498095Y-115554819D02*
X148736190Y-115554819D01*
X148736190Y-115554819D02*
X148831428Y-115602438D01*
X148831428Y-115602438D02*
X148879047Y-115650057D01*
X148879047Y-115650057D02*
X148926666Y-115745295D01*
X148926666Y-115745295D02*
X148926666Y-115840533D01*
X148926666Y-115840533D02*
X148879047Y-115983390D01*
X148879047Y-115983390D02*
X148307619Y-116554819D01*
X148307619Y-116554819D02*
X148926666Y-116554819D01*
X147926666Y-137394819D02*
X147926666Y-138109104D01*
X147926666Y-138109104D02*
X147879047Y-138251961D01*
X147879047Y-138251961D02*
X147783809Y-138347200D01*
X147783809Y-138347200D02*
X147640952Y-138394819D01*
X147640952Y-138394819D02*
X147545714Y-138394819D01*
X148831428Y-137728152D02*
X148831428Y-138394819D01*
X148593333Y-137347200D02*
X148355238Y-138061485D01*
X148355238Y-138061485D02*
X148974285Y-138061485D01*
X148366666Y-74554819D02*
X148366666Y-75269104D01*
X148366666Y-75269104D02*
X148319047Y-75411961D01*
X148319047Y-75411961D02*
X148223809Y-75507200D01*
X148223809Y-75507200D02*
X148080952Y-75554819D01*
X148080952Y-75554819D02*
X147985714Y-75554819D01*
X149271428Y-74554819D02*
X149080952Y-74554819D01*
X149080952Y-74554819D02*
X148985714Y-74602438D01*
X148985714Y-74602438D02*
X148938095Y-74650057D01*
X148938095Y-74650057D02*
X148842857Y-74792914D01*
X148842857Y-74792914D02*
X148795238Y-74983390D01*
X148795238Y-74983390D02*
X148795238Y-75364342D01*
X148795238Y-75364342D02*
X148842857Y-75459580D01*
X148842857Y-75459580D02*
X148890476Y-75507200D01*
X148890476Y-75507200D02*
X148985714Y-75554819D01*
X148985714Y-75554819D02*
X149176190Y-75554819D01*
X149176190Y-75554819D02*
X149271428Y-75507200D01*
X149271428Y-75507200D02*
X149319047Y-75459580D01*
X149319047Y-75459580D02*
X149366666Y-75364342D01*
X149366666Y-75364342D02*
X149366666Y-75126247D01*
X149366666Y-75126247D02*
X149319047Y-75031009D01*
X149319047Y-75031009D02*
X149271428Y-74983390D01*
X149271428Y-74983390D02*
X149176190Y-74935771D01*
X149176190Y-74935771D02*
X148985714Y-74935771D01*
X148985714Y-74935771D02*
X148890476Y-74983390D01*
X148890476Y-74983390D02*
X148842857Y-75031009D01*
X148842857Y-75031009D02*
X148795238Y-75126247D01*
X92616666Y-83979819D02*
X92616666Y-84694104D01*
X92616666Y-84694104D02*
X92569047Y-84836961D01*
X92569047Y-84836961D02*
X92473809Y-84932200D01*
X92473809Y-84932200D02*
X92330952Y-84979819D01*
X92330952Y-84979819D02*
X92235714Y-84979819D01*
X93569047Y-83979819D02*
X93092857Y-83979819D01*
X93092857Y-83979819D02*
X93045238Y-84456009D01*
X93045238Y-84456009D02*
X93092857Y-84408390D01*
X93092857Y-84408390D02*
X93188095Y-84360771D01*
X93188095Y-84360771D02*
X93426190Y-84360771D01*
X93426190Y-84360771D02*
X93521428Y-84408390D01*
X93521428Y-84408390D02*
X93569047Y-84456009D01*
X93569047Y-84456009D02*
X93616666Y-84551247D01*
X93616666Y-84551247D02*
X93616666Y-84789342D01*
X93616666Y-84789342D02*
X93569047Y-84884580D01*
X93569047Y-84884580D02*
X93521428Y-84932200D01*
X93521428Y-84932200D02*
X93426190Y-84979819D01*
X93426190Y-84979819D02*
X93188095Y-84979819D01*
X93188095Y-84979819D02*
X93092857Y-84932200D01*
X93092857Y-84932200D02*
X93045238Y-84884580D01*
X89179761Y-140119819D02*
X88846428Y-139643628D01*
X88608333Y-140119819D02*
X88608333Y-139119819D01*
X88608333Y-139119819D02*
X88989285Y-139119819D01*
X88989285Y-139119819D02*
X89084523Y-139167438D01*
X89084523Y-139167438D02*
X89132142Y-139215057D01*
X89132142Y-139215057D02*
X89179761Y-139310295D01*
X89179761Y-139310295D02*
X89179761Y-139453152D01*
X89179761Y-139453152D02*
X89132142Y-139548390D01*
X89132142Y-139548390D02*
X89084523Y-139596009D01*
X89084523Y-139596009D02*
X88989285Y-139643628D01*
X88989285Y-139643628D02*
X88608333Y-139643628D01*
X89465476Y-139119819D02*
X89798809Y-140119819D01*
X89798809Y-140119819D02*
X90132142Y-139119819D01*
X90989285Y-140119819D02*
X90417857Y-140119819D01*
X90703571Y-140119819D02*
X90703571Y-139119819D01*
X90703571Y-139119819D02*
X90608333Y-139262676D01*
X90608333Y-139262676D02*
X90513095Y-139357914D01*
X90513095Y-139357914D02*
X90417857Y-139405533D01*
X158940476Y-155124819D02*
X158940476Y-155839104D01*
X158940476Y-155839104D02*
X158892857Y-155981961D01*
X158892857Y-155981961D02*
X158797619Y-156077200D01*
X158797619Y-156077200D02*
X158654762Y-156124819D01*
X158654762Y-156124819D02*
X158559524Y-156124819D01*
X159940476Y-156124819D02*
X159369048Y-156124819D01*
X159654762Y-156124819D02*
X159654762Y-155124819D01*
X159654762Y-155124819D02*
X159559524Y-155267676D01*
X159559524Y-155267676D02*
X159464286Y-155362914D01*
X159464286Y-155362914D02*
X159369048Y-155410533D01*
X160559524Y-155124819D02*
X160654762Y-155124819D01*
X160654762Y-155124819D02*
X160750000Y-155172438D01*
X160750000Y-155172438D02*
X160797619Y-155220057D01*
X160797619Y-155220057D02*
X160845238Y-155315295D01*
X160845238Y-155315295D02*
X160892857Y-155505771D01*
X160892857Y-155505771D02*
X160892857Y-155743866D01*
X160892857Y-155743866D02*
X160845238Y-155934342D01*
X160845238Y-155934342D02*
X160797619Y-156029580D01*
X160797619Y-156029580D02*
X160750000Y-156077200D01*
X160750000Y-156077200D02*
X160654762Y-156124819D01*
X160654762Y-156124819D02*
X160559524Y-156124819D01*
X160559524Y-156124819D02*
X160464286Y-156077200D01*
X160464286Y-156077200D02*
X160416667Y-156029580D01*
X160416667Y-156029580D02*
X160369048Y-155934342D01*
X160369048Y-155934342D02*
X160321429Y-155743866D01*
X160321429Y-155743866D02*
X160321429Y-155505771D01*
X160321429Y-155505771D02*
X160369048Y-155315295D01*
X160369048Y-155315295D02*
X160416667Y-155220057D01*
X160416667Y-155220057D02*
X160464286Y-155172438D01*
X160464286Y-155172438D02*
X160559524Y-155124819D01*
X155286666Y-142304819D02*
X155286666Y-143019104D01*
X155286666Y-143019104D02*
X155239047Y-143161961D01*
X155239047Y-143161961D02*
X155143809Y-143257200D01*
X155143809Y-143257200D02*
X155000952Y-143304819D01*
X155000952Y-143304819D02*
X154905714Y-143304819D01*
X155810476Y-143304819D02*
X156000952Y-143304819D01*
X156000952Y-143304819D02*
X156096190Y-143257200D01*
X156096190Y-143257200D02*
X156143809Y-143209580D01*
X156143809Y-143209580D02*
X156239047Y-143066723D01*
X156239047Y-143066723D02*
X156286666Y-142876247D01*
X156286666Y-142876247D02*
X156286666Y-142495295D01*
X156286666Y-142495295D02*
X156239047Y-142400057D01*
X156239047Y-142400057D02*
X156191428Y-142352438D01*
X156191428Y-142352438D02*
X156096190Y-142304819D01*
X156096190Y-142304819D02*
X155905714Y-142304819D01*
X155905714Y-142304819D02*
X155810476Y-142352438D01*
X155810476Y-142352438D02*
X155762857Y-142400057D01*
X155762857Y-142400057D02*
X155715238Y-142495295D01*
X155715238Y-142495295D02*
X155715238Y-142733390D01*
X155715238Y-142733390D02*
X155762857Y-142828628D01*
X155762857Y-142828628D02*
X155810476Y-142876247D01*
X155810476Y-142876247D02*
X155905714Y-142923866D01*
X155905714Y-142923866D02*
X156096190Y-142923866D01*
X156096190Y-142923866D02*
X156191428Y-142876247D01*
X156191428Y-142876247D02*
X156239047Y-142828628D01*
X156239047Y-142828628D02*
X156286666Y-142733390D01*
X147516666Y-155874819D02*
X147516666Y-156589104D01*
X147516666Y-156589104D02*
X147469047Y-156731961D01*
X147469047Y-156731961D02*
X147373809Y-156827200D01*
X147373809Y-156827200D02*
X147230952Y-156874819D01*
X147230952Y-156874819D02*
X147135714Y-156874819D01*
X148135714Y-156303390D02*
X148040476Y-156255771D01*
X148040476Y-156255771D02*
X147992857Y-156208152D01*
X147992857Y-156208152D02*
X147945238Y-156112914D01*
X147945238Y-156112914D02*
X147945238Y-156065295D01*
X147945238Y-156065295D02*
X147992857Y-155970057D01*
X147992857Y-155970057D02*
X148040476Y-155922438D01*
X148040476Y-155922438D02*
X148135714Y-155874819D01*
X148135714Y-155874819D02*
X148326190Y-155874819D01*
X148326190Y-155874819D02*
X148421428Y-155922438D01*
X148421428Y-155922438D02*
X148469047Y-155970057D01*
X148469047Y-155970057D02*
X148516666Y-156065295D01*
X148516666Y-156065295D02*
X148516666Y-156112914D01*
X148516666Y-156112914D02*
X148469047Y-156208152D01*
X148469047Y-156208152D02*
X148421428Y-156255771D01*
X148421428Y-156255771D02*
X148326190Y-156303390D01*
X148326190Y-156303390D02*
X148135714Y-156303390D01*
X148135714Y-156303390D02*
X148040476Y-156351009D01*
X148040476Y-156351009D02*
X147992857Y-156398628D01*
X147992857Y-156398628D02*
X147945238Y-156493866D01*
X147945238Y-156493866D02*
X147945238Y-156684342D01*
X147945238Y-156684342D02*
X147992857Y-156779580D01*
X147992857Y-156779580D02*
X148040476Y-156827200D01*
X148040476Y-156827200D02*
X148135714Y-156874819D01*
X148135714Y-156874819D02*
X148326190Y-156874819D01*
X148326190Y-156874819D02*
X148421428Y-156827200D01*
X148421428Y-156827200D02*
X148469047Y-156779580D01*
X148469047Y-156779580D02*
X148516666Y-156684342D01*
X148516666Y-156684342D02*
X148516666Y-156493866D01*
X148516666Y-156493866D02*
X148469047Y-156398628D01*
X148469047Y-156398628D02*
X148421428Y-156351009D01*
X148421428Y-156351009D02*
X148326190Y-156303390D01*
X132666666Y-142599819D02*
X132666666Y-143314104D01*
X132666666Y-143314104D02*
X132619047Y-143456961D01*
X132619047Y-143456961D02*
X132523809Y-143552200D01*
X132523809Y-143552200D02*
X132380952Y-143599819D01*
X132380952Y-143599819D02*
X132285714Y-143599819D01*
X133047619Y-142599819D02*
X133714285Y-142599819D01*
X133714285Y-142599819D02*
X133285714Y-143599819D01*
%TO.C,J1*%
D11*
X101380000Y-101270000D02*
X101380000Y-119160000D01*
X98620000Y-119160000D02*
X101380000Y-119160000D01*
X98620000Y-101270000D02*
X101380000Y-101270000D01*
X98620000Y-101270000D02*
X98620000Y-119160000D01*
X98620000Y-100000000D02*
X98620000Y-98620000D01*
X98620000Y-98620000D02*
X100000000Y-98620000D01*
%TO.C,J3*%
X101380000Y-124130000D02*
X101380000Y-136940000D01*
X98620000Y-136940000D02*
X101380000Y-136940000D01*
X98620000Y-124130000D02*
X101380000Y-124130000D01*
X98620000Y-124130000D02*
X98620000Y-136940000D01*
X98620000Y-122860000D02*
X98620000Y-121480000D01*
X98620000Y-121480000D02*
X100000000Y-121480000D01*
%TO.C,J2*%
X149640000Y-115100000D02*
X148260000Y-115100000D01*
X149640000Y-113720000D02*
X149640000Y-115100000D01*
X149640000Y-112450000D02*
X149640000Y-89480000D01*
X149640000Y-112450000D02*
X146880000Y-112450000D01*
X149640000Y-89480000D02*
X146880000Y-89480000D01*
X146880000Y-112450000D02*
X146880000Y-89480000D01*
%TO.C,J4*%
X149640000Y-136940000D02*
X148260000Y-136940000D01*
X149640000Y-135560000D02*
X149640000Y-136940000D01*
X149640000Y-134290000D02*
X149640000Y-116400000D01*
X149640000Y-134290000D02*
X146880000Y-134290000D01*
X149640000Y-116400000D02*
X146880000Y-116400000D01*
X146880000Y-134290000D02*
X146880000Y-116400000D01*
%TO.C,J6*%
X153650000Y-82050000D02*
X143350000Y-82050000D01*
X153650000Y-76100000D02*
X153650000Y-82050000D01*
X150450000Y-76100000D02*
X153650000Y-76100000D01*
X149780000Y-80940000D02*
X149780000Y-81950000D01*
X144700000Y-81950000D02*
X144700000Y-80940000D01*
X144700000Y-80940000D02*
X149780000Y-80940000D01*
X143350000Y-82050000D02*
X143350000Y-76050000D01*
X143350000Y-76050000D02*
X149100000Y-76050000D01*
%TO.C,J5*%
X96900000Y-91325000D02*
X89100000Y-91325000D01*
X96900000Y-85275000D02*
X96900000Y-91325000D01*
X95530000Y-90215000D02*
X95530000Y-91225000D01*
X90450000Y-91225000D02*
X90450000Y-90215000D01*
X90450000Y-90215000D02*
X95530000Y-90215000D01*
X89100000Y-91325000D02*
X89100000Y-85275000D01*
X89100000Y-85275000D02*
X96900000Y-85275000D01*
%TO.C,RV1*%
X91155000Y-143315000D02*
X91155000Y-148505000D01*
X88395000Y-148505000D02*
X91155000Y-148505000D01*
X88395000Y-143315000D02*
X91155000Y-143315000D01*
X88395000Y-143315000D02*
X88395000Y-148505000D01*
X88395000Y-142045000D02*
X88395000Y-140665000D01*
X88395000Y-140665000D02*
X89775000Y-140665000D01*
%TO.C,J10*%
X158370000Y-156670000D02*
X159750000Y-156670000D01*
X158370000Y-158050000D02*
X158370000Y-156670000D01*
X158370000Y-159320000D02*
X158370000Y-161970000D01*
X158370000Y-159320000D02*
X161130000Y-159320000D01*
X158370000Y-161970000D02*
X161130000Y-161970000D01*
X161130000Y-159320000D02*
X161130000Y-161970000D01*
%TO.C,J9*%
X150270000Y-143800000D02*
X156020000Y-143800000D01*
X150270000Y-149800000D02*
X150270000Y-143800000D01*
X151620000Y-148690000D02*
X156700000Y-148690000D01*
X151620000Y-149700000D02*
X151620000Y-148690000D01*
X156700000Y-148690000D02*
X156700000Y-149700000D01*
X157370000Y-143850000D02*
X160570000Y-143850000D01*
X160570000Y-143850000D02*
X160570000Y-149800000D01*
X160570000Y-149800000D02*
X150270000Y-149800000D01*
%TO.C,J8*%
X146470000Y-157420000D02*
X147850000Y-157420000D01*
X146470000Y-158800000D02*
X146470000Y-157420000D01*
X146470000Y-160070000D02*
X146470000Y-162720000D01*
X146470000Y-160070000D02*
X149230000Y-160070000D01*
X146470000Y-162720000D02*
X149230000Y-162720000D01*
X149230000Y-160070000D02*
X149230000Y-162720000D01*
%TO.C,J7*%
X131620000Y-144145000D02*
X133000000Y-144145000D01*
X131620000Y-145525000D02*
X131620000Y-144145000D01*
X131620000Y-146795000D02*
X131620000Y-149445000D01*
X131620000Y-146795000D02*
X134380000Y-146795000D01*
X131620000Y-149445000D02*
X134380000Y-149445000D01*
X134380000Y-146795000D02*
X134380000Y-149445000D01*
%TD*%
M02*
