%TF.GenerationSoftware,KiCad,Pcbnew,10.0.6*%
%TF.CreationDate,2026-09-20T19:14:13-04:00*%
%TF.ProjectId,stm32-environmental-control-system,73746d33-322d-4656-9e76-69726f6e6d65,rev?*%
%TF.SameCoordinates,Original*%
%TF.FileFunction,Copper,L1,Top*%
%TF.FilePolarity,Positive*%
%FSLAX46Y46*%
G04 Gerber Fmt 4.6, Leading zero omitted, Abs format (unit mm)*
G04 Created by KiCad (PCBNEW 10.0.6) date 2026-09-20 19:14:13*
%MOMM*%
%LPD*%
G01*
G04 APERTURE LIST*
%TA.AperFunction,ComponentPad*%
%ADD10C,1.700000*%
%TD*%
%TA.AperFunction,ComponentPad*%
%ADD11R,1.700000X1.700000*%
%TD*%
%TA.AperFunction,ComponentPad*%
%ADD12O,1.730000X2.030000*%
%TD*%
%TA.AperFunction,ComponentPad*%
%ADD13R,1.730000X2.030000*%
%TD*%
%TA.AperFunction,Conductor*%
%ADD14C,0.200000*%
%TD*%
G04 APERTURE END LIST*
D10*
%TO.P,J1,8,Pin_8_8*%
%TO.N,/VIN*%
X100000000Y-117780000D03*
%TO.P,J1,7,Pin_7_7*%
%TO.N,/GND*%
X100000000Y-115240000D03*
%TO.P,J1,6,Pin_6_6*%
X100000000Y-112700000D03*
%TO.P,J1,5,Pin_5_5*%
%TO.N,/NUCLEO_5V*%
X100000000Y-110160000D03*
%TO.P,J1,4,Pin_4_4*%
%TO.N,/3V3*%
X100000000Y-107620000D03*
%TO.P,J1,3,Pin_3_3*%
%TO.N,/RESET*%
X100000000Y-105080000D03*
%TO.P,J1,2,Pin_2_2*%
%TO.N,/IOREF*%
X100000000Y-102540000D03*
D11*
%TO.P,J1,1,Pin_1_1*%
%TO.N,/NC*%
X100000000Y-100000000D03*
%TD*%
D10*
%TO.P,J3,6,Pin_6_6*%
%TO.N,unconnected-(J3-Pin_6-Pad6)*%
X100000000Y-135560000D03*
%TO.P,J3,5,Pin_5_5*%
%TO.N,unconnected-(J3-Pin_5-Pad5)*%
X100000000Y-133020000D03*
%TO.P,J3,4,Pin_4_4*%
%TO.N,unconnected-(J3-Pin_4-Pad4)*%
X100000000Y-130480000D03*
%TO.P,J3,3,Pin_3_3*%
%TO.N,/A2_PA4*%
X100000000Y-127940000D03*
%TO.P,J3,2,Pin_2_2*%
%TO.N,/A1_PA1*%
X100000000Y-125400000D03*
D11*
%TO.P,J3,1,Pin_1_1*%
%TO.N,/A0_PA0*%
X100000000Y-122860000D03*
%TD*%
%TO.P,J2,1,Pin_1_1*%
%TO.N,unconnected-(J2-Pin_1-Pad1)*%
X148260000Y-113720000D03*
D10*
%TO.P,J2,2,Pin_2_2*%
%TO.N,unconnected-(J2-Pin_2-Pad2)*%
X148260000Y-111180000D03*
%TO.P,J2,3,Pin_3_3*%
%TO.N,unconnected-(J2-Pin_3-Pad3)*%
X148260000Y-108640000D03*
%TO.P,J2,4,Pin_4_4*%
%TO.N,unconnected-(J2-Pin_4-Pad4)*%
X148260000Y-106100000D03*
%TO.P,J2,5,Pin_5_5*%
%TO.N,unconnected-(J2-Pin_5-Pad5)*%
X148260000Y-103560000D03*
%TO.P,J2,6,Pin_6_6*%
%TO.N,unconnected-(J2-Pin_6-Pad6)*%
X148260000Y-101020000D03*
%TO.P,J2,7,Pin_7_7*%
%TO.N,unconnected-(J2-Pin_7-Pad7)*%
X148260000Y-98480000D03*
%TO.P,J2,8,Pin_8_8*%
%TO.N,unconnected-(J2-Pin_8-Pad8)*%
X148260000Y-95940000D03*
%TO.P,J2,9,Pin_9_9*%
%TO.N,/D14_PB9_SDA*%
X148260000Y-93400000D03*
%TO.P,J2,10,Pin_10_10*%
%TO.N,/D15_PB8_SCL*%
X148260000Y-90860000D03*
%TD*%
D11*
%TO.P,J4,1,Pin_1_1*%
%TO.N,/D0_PA3_RX*%
X148260000Y-135560000D03*
D10*
%TO.P,J4,2,Pin_2_2*%
%TO.N,/D1_PA2_TX*%
X148260000Y-133020000D03*
%TO.P,J4,3,Pin_3_3*%
%TO.N,/D2_PA10*%
X148260000Y-130480000D03*
%TO.P,J4,4,Pin_4_4*%
%TO.N,/d3_PB3*%
X148260000Y-127940000D03*
%TO.P,J4,5,Pin_5_5*%
%TO.N,/D4_PB5*%
X148260000Y-125400000D03*
%TO.P,J4,6,Pin_6_6*%
%TO.N,/D5_PB4*%
X148260000Y-122860000D03*
%TO.P,J4,7,Pin_7_7*%
%TO.N,/D6_PB10*%
X148260000Y-120320000D03*
%TO.P,J4,8,Pin_8_8*%
%TO.N,/D7_PA8*%
X148260000Y-117780000D03*
%TD*%
D12*
%TO.P,J6,4,Pin_4_4*%
%TO.N,/D14_PB9_SDA*%
X152320000Y-78650000D03*
%TO.P,J6,3,Pin_3_3*%
%TO.N,/D15_PB8_SCL*%
X149780000Y-78650000D03*
%TO.P,J6,2,Pin_2_2*%
%TO.N,/3V3*%
X147240000Y-78650000D03*
D13*
%TO.P,J6,1,Pin_1_1*%
%TO.N,/GND*%
X144700000Y-78650000D03*
%TD*%
D12*
%TO.P,J5,3,Pin_3_3*%
%TO.N,/GND*%
X95530000Y-87925000D03*
%TO.P,J5,2,Pin_2_2*%
%TO.N,/A1_PA1*%
X92990000Y-87925000D03*
D13*
%TO.P,J5,1,Pin_1_1*%
%TO.N,/3V3*%
X90450000Y-87925000D03*
%TD*%
D10*
%TO.P,RV1,3,3_3*%
%TO.N,/GND*%
X89775000Y-147125000D03*
%TO.P,RV1,2,2_2*%
%TO.N,/A0_PA0*%
X89775000Y-144585000D03*
D11*
%TO.P,RV1,1,1_1*%
%TO.N,/3V3*%
X89775000Y-142045000D03*
%TD*%
%TO.P,J10,1,Pin_1_1*%
%TO.N,/FAN_5V*%
X159750000Y-158050000D03*
D10*
%TO.P,J10,2,Pin_2_2*%
%TO.N,/GND*%
X159750000Y-160590000D03*
%TD*%
D13*
%TO.P,J9,1,Pin_1_1*%
%TO.N,/FAN_5V*%
X151620000Y-146400000D03*
D12*
%TO.P,J9,2,Pin_2_2*%
%TO.N,/GND*%
X154160000Y-146400000D03*
%TO.P,J9,3,Pin_3_3*%
%TO.N,/FAN_5V*%
X156700000Y-146400000D03*
%TO.P,J9,4,Pin_4_4*%
%TO.N,/FAN_SW*%
X159240000Y-146400000D03*
%TD*%
D11*
%TO.P,J8,1,Pin_1_1*%
%TO.N,/FAN_5V*%
X147850000Y-158800000D03*
D10*
%TO.P,J8,2,Pin_2_2*%
%TO.N,/FAN_SW*%
X147850000Y-161340000D03*
%TD*%
D11*
%TO.P,J7,1,Pin_1_1*%
%TO.N,/A2_PA4*%
X133000000Y-145525000D03*
D10*
%TO.P,J7,2,Pin_2_2*%
%TO.N,/GND*%
X133000000Y-148065000D03*
%TD*%
%TO.N,/3V3*%
D14*
X90450000Y-77867442D02*
X92483721Y-75833721D01*
X92483721Y-75833721D02*
X144423721Y-75833721D01*
X144423721Y-75833721D02*
X147240000Y-78650000D01*
%TO.N,/GND*%
X144700000Y-85665685D02*
X144700000Y-78650000D01*
X99523654Y-126550000D02*
X103815685Y-126550000D01*
X103815685Y-126550000D02*
X144700000Y-85665685D01*
X98850000Y-125876346D02*
X99523654Y-126550000D01*
X98850000Y-124923654D02*
X98850000Y-125876346D01*
X99589340Y-124184314D02*
X98850000Y-124923654D01*
X105050000Y-124184314D02*
X99589340Y-124184314D01*
X105050000Y-117750000D02*
X105050000Y-124184314D01*
X100000000Y-112700000D02*
X105050000Y-117750000D01*
%TO.N,/D15_PB8_SCL*%
X149780000Y-88960000D02*
X149780000Y-78650000D01*
X149860000Y-89040000D02*
X149780000Y-88960000D01*
X149860000Y-89260000D02*
X150010000Y-89110000D01*
X149860000Y-89260000D02*
X149860000Y-89040000D01*
%TO.N,/D14_PB9_SDA*%
X152320000Y-78650000D02*
X152320000Y-89340000D01*
%TO.N,/3V3*%
X90450000Y-89550000D02*
X90450000Y-77867442D01*
X90450000Y-89550000D02*
X90450000Y-87925000D01*
X90450000Y-98070000D02*
X90450000Y-89550000D01*
%TO.N,/A1_PA1*%
X92990000Y-90540000D02*
X92990000Y-87925000D01*
X97350000Y-94900000D02*
X92990000Y-90540000D01*
X105450000Y-94900000D02*
X97350000Y-94900000D01*
%TO.N,/GND*%
X95530000Y-87925000D02*
X105775000Y-87925000D01*
X91825000Y-134498654D02*
X91825000Y-124135000D01*
X91825000Y-124135000D02*
X91950000Y-124010000D01*
X92600000Y-144300000D02*
X89775000Y-147125000D01*
X92600000Y-135273654D02*
X92600000Y-144300000D01*
X91825000Y-134498654D02*
X92600000Y-135273654D01*
%TO.N,/A0_PA0*%
X100000000Y-122860000D02*
X94635000Y-122860000D01*
X91425000Y-119650000D02*
X91425000Y-142935000D01*
X94635000Y-122860000D02*
X91425000Y-119650000D01*
%TO.N,/3V3*%
X89775000Y-117845000D02*
X89775000Y-142045000D01*
X100000000Y-107620000D02*
X89775000Y-117845000D01*
%TO.N,/GND*%
X99763654Y-129330000D02*
X114265000Y-129330000D01*
X98850000Y-124923654D02*
X98850000Y-128416346D01*
X98850000Y-128416346D02*
X99763654Y-129330000D01*
X114265000Y-129330000D02*
X133000000Y-148065000D01*
%TO.N,/A2_PA4*%
X133000000Y-138700000D02*
X133000000Y-145525000D01*
X122240000Y-127940000D02*
X133000000Y-138700000D01*
X100000000Y-127940000D02*
X122240000Y-127940000D01*
%TO.N,/D14_PB9_SDA*%
X148260000Y-93400000D02*
X152320000Y-89340000D01*
%TO.N,/GND*%
X101150000Y-116390000D02*
X101150000Y-124010000D01*
%TO.N,/D15_PB8_SCL*%
X148260000Y-90860000D02*
X149860000Y-89260000D01*
%TO.N,/GND*%
X100000000Y-115240000D02*
X102930000Y-118170000D01*
X105850000Y-124515685D02*
X105850000Y-88000000D01*
X103815685Y-126550000D02*
X105850000Y-124515685D01*
X105050000Y-120290000D02*
X105050000Y-124184314D01*
X99523654Y-126550000D02*
X134310000Y-126550000D01*
X101150000Y-124190000D02*
X101090000Y-124250000D01*
X101150000Y-116390000D02*
X101150000Y-124190000D01*
X98850000Y-125876346D02*
X99763654Y-126790000D01*
X99763654Y-126790000D02*
X125950000Y-126790000D01*
X99523654Y-124250000D02*
X98850000Y-124923654D01*
X100000000Y-115240000D02*
X101150000Y-116390000D01*
X101090000Y-124250000D02*
X99523654Y-124250000D01*
X100000000Y-112700000D02*
X102930000Y-115630000D01*
X102930000Y-118170000D02*
X105050000Y-120290000D01*
X102930000Y-115630000D02*
X102930000Y-118170000D01*
%TO.N,/A1_PA1*%
X100000000Y-125400000D02*
X104100000Y-125400000D01*
X104100000Y-125400000D02*
X104250000Y-125550000D01*
X105450000Y-124350000D02*
X105450000Y-94900000D01*
X104250000Y-125550000D02*
X105450000Y-124350000D01*
%TO.N,/A0_PA0*%
X91425000Y-142935000D02*
X89775000Y-144585000D01*
%TO.N,/3V3*%
X100000000Y-107620000D02*
X90450000Y-98070000D01*
X100000000Y-107620000D02*
X91825000Y-99445000D01*
%TO.N,/FAN_5V*%
X156700000Y-148000000D02*
X156700000Y-146400000D01*
X156850000Y-148150000D02*
X156700000Y-148000000D01*
X153370000Y-148150000D02*
X156850000Y-148150000D01*
X151620000Y-146400000D02*
X153370000Y-148150000D01*
X163450000Y-157400000D02*
X163450000Y-161250000D01*
X163500000Y-161300000D02*
X163500000Y-163350000D01*
X163450000Y-161250000D02*
X163500000Y-161300000D01*
X163450000Y-157400000D02*
X163450000Y-158000000D01*
X159750000Y-154530000D02*
X159750000Y-158050000D01*
X151620000Y-146400000D02*
X159750000Y-154530000D01*
X163450000Y-158000000D02*
X163500000Y-158050000D01*
X163450000Y-145750000D02*
X163450000Y-157400000D01*
X162400000Y-144700000D02*
X163450000Y-145750000D01*
X156700000Y-146400000D02*
X158400000Y-144700000D01*
X163500000Y-158050000D02*
X163500000Y-161300000D01*
X158400000Y-144700000D02*
X162400000Y-144700000D01*
X145100000Y-158850000D02*
X145150000Y-158800000D01*
X163500000Y-163350000D02*
X162050000Y-164800000D01*
X145150000Y-158800000D02*
X147850000Y-158800000D01*
X145100000Y-164800000D02*
X145100000Y-158850000D01*
X163500000Y-157900000D02*
X163500000Y-158050000D01*
X163450000Y-157900000D02*
X163500000Y-157900000D01*
X162050000Y-164800000D02*
X145100000Y-164800000D01*
%TO.N,/FAN_SW*%
X160342031Y-162190000D02*
X148700000Y-162190000D01*
X161300000Y-148460000D02*
X161300000Y-161232032D01*
X148700000Y-162190000D02*
X147850000Y-161340000D01*
X159240000Y-146400000D02*
X161300000Y-148460000D01*
X161300000Y-161232032D02*
X160342031Y-162190000D01*
%TO.N,/GND*%
X125950000Y-126790000D02*
X159750000Y-160590000D01*
X134310000Y-126550000D02*
X154160000Y-146400000D01*
X101150000Y-124010000D02*
X91950000Y-124010000D01*
%TD*%
M02*
