%TF.GenerationSoftware,KiCad,Pcbnew,10.0.6*%
%TF.CreationDate,2026-09-20T19:14:13-04:00*%
%TF.ProjectId,stm32-environmental-control-system,73746d33-322d-4656-9e76-69726f6e6d65,rev?*%
%TF.SameCoordinates,Original*%
%TF.FileFunction,Soldermask,Top*%
%TF.FilePolarity,Negative*%
%FSLAX46Y46*%
G04 Gerber Fmt 4.6, Leading zero omitted, Abs format (unit mm)*
G04 Created by KiCad (PCBNEW 10.0.6) date 2026-09-20 19:14:13*
%MOMM*%
%LPD*%
G01*
G04 APERTURE LIST*
%ADD10C,1.700000*%
%ADD11R,1.700000X1.700000*%
%ADD12O,1.730000X2.030000*%
%ADD13R,1.730000X2.030000*%
%ADD14C,1.100000*%
G04 APERTURE END LIST*
D10*
%TO.C,J1*%
X100000000Y-117780000D03*
X100000000Y-115240000D03*
X100000000Y-112700000D03*
X100000000Y-110160000D03*
X100000000Y-107620000D03*
X100000000Y-105080000D03*
X100000000Y-102540000D03*
D11*
X100000000Y-100000000D03*
%TD*%
D10*
%TO.C,J3*%
X100000000Y-135560000D03*
X100000000Y-133020000D03*
X100000000Y-130480000D03*
X100000000Y-127940000D03*
X100000000Y-125400000D03*
D11*
X100000000Y-122860000D03*
%TD*%
%TO.C,J2*%
X148260000Y-113720000D03*
D10*
X148260000Y-111180000D03*
X148260000Y-108640000D03*
X148260000Y-106100000D03*
X148260000Y-103560000D03*
X148260000Y-101020000D03*
X148260000Y-98480000D03*
X148260000Y-95940000D03*
X148260000Y-93400000D03*
X148260000Y-90860000D03*
%TD*%
D11*
%TO.C,J4*%
X148260000Y-135560000D03*
D10*
X148260000Y-133020000D03*
X148260000Y-130480000D03*
X148260000Y-127940000D03*
X148260000Y-125400000D03*
X148260000Y-122860000D03*
X148260000Y-120320000D03*
X148260000Y-117780000D03*
%TD*%
D12*
%TO.C,J6*%
X152320000Y-78650000D03*
X149780000Y-78650000D03*
X147240000Y-78650000D03*
D13*
X144700000Y-78650000D03*
D14*
X149780000Y-76490000D03*
%TD*%
D12*
%TO.C,J5*%
X95530000Y-87925000D03*
X92990000Y-87925000D03*
D13*
X90450000Y-87925000D03*
%TD*%
D10*
%TO.C,RV1*%
X89775000Y-147125000D03*
X89775000Y-144585000D03*
D11*
X89775000Y-142045000D03*
%TD*%
%TO.C,J10*%
X159750000Y-158050000D03*
D10*
X159750000Y-160590000D03*
%TD*%
D14*
%TO.C,J9*%
X156700000Y-144240000D03*
D13*
X151620000Y-146400000D03*
D12*
X154160000Y-146400000D03*
X156700000Y-146400000D03*
X159240000Y-146400000D03*
%TD*%
D11*
%TO.C,J8*%
X147850000Y-158800000D03*
D10*
X147850000Y-161340000D03*
%TD*%
D11*
%TO.C,J7*%
X133000000Y-145525000D03*
D10*
X133000000Y-148065000D03*
%TD*%
M02*
